<svg width="96" height="96" viewBox="0 0 96 96" fill="none" xmlns="http://www.w3.org/2000/svg">
    <path d="M56.919 95.8456C51.7629 96.7728 46.7908 93.4348 45.8701 88.2422L31.8748 11.2813C30.954 6.08876 34.2687 1.08167 39.4249 0.154428C44.5811 -0.772811 49.5531 2.56525 50.4738 7.75779L64.4691 84.7187C65.3899 89.9112 61.891 94.9183 56.919 95.8456Z" fill="#FF5543"/>
    <path d="M20.2735 82.6788C16.9588 83.2352 13.6442 82.1225 11.2502 79.5262C7.93555 75.4463 8.30384 69.512 12.3551 66.1739L71.4669 15.5466C75.5182 12.2086 81.4109 12.5795 84.7256 16.6593C88.0403 20.7392 87.672 26.6735 83.6207 30.0116L24.6931 80.6389C23.404 81.7516 21.7467 82.4934 20.2735 82.6788Z" fill="#A112FF"/>
    <path d="M86.383 70.4392C84.7256 70.8101 83.0683 70.6247 81.5951 70.0683L8.30385 43.9202C3.33183 42.0657 0.753746 36.6877 2.59523 31.6806C4.43672 26.6735 9.77704 24.0772 14.7491 25.9317L87.8562 52.0799C92.8282 53.9344 95.4063 59.3123 93.5648 64.3194C92.4599 67.6575 89.5135 69.8829 86.383 70.4392Z" fill="#00CBEC"/>
</svg>